<svg width="500" height="500" viewBox="0 0 500 500" xmlns="http://www.w3.org/2000/svg">
  <path fill="#000" d="
    M400,20 
    C400,9 391,0 380,0 
    H120 
    C109,0 100,9 100,20 
    V120 
    C100,131 91,140 80,140 
    H20 
    C9,140 0,149 0,160 
    V480 
    C0,491 9,500 20,500 
    H340 
    C351,500 360,491 360,480 
    V450 
    C360,439 369,430 380,430 
    H460 
    C471,430 480,421 480,410 
    V60 
    C480,49 471,40 460,40 
    H420 
    C409,40 400,31 400,20 
    Z
  "></path>
</svg>
